<svg xmlns="http://www.w3.org/2000/svg" width="32" height="32" viewBox="-20 -20 40 40">
  <title>opensaga stud stack</title>
  <g aria-label="Column: four collectible studs" transform="translate(0 0.35)">
    <g transform="translate(-7.319919890073721e-16 11.954336377100947) rotate(-90)" aria-label="silver collectible stud">
      <path d="M-5.890 -8.000H-0.909A0.697 8.000 0 0 1 -0.909 8.000H-5.890A0.697 8.000 0 0 1 -5.890 -8.000Z" fill="#596474" />
      <ellipse cx="-0.9090389553440881" cy="0" rx="0.6972459419812651" ry="8" fill="#8995A5" />
      <path d="M-0.909 -10.000H2.080A0.872 10.000 0 0 1 2.080 10.000H-0.909A0.872 10.000 0 0 1 -0.909 -10.000Z" fill="#8995A5" />
      <ellipse cx="2.079545138931149" cy="0" rx="0.8715574274765814" ry="10" fill="#BCC6D2" />
      <path d="M2.080 -6.000H6.064A0.523 6.000 0 0 1 6.064 6.000H2.080A0.523 6.000 0 0 1 2.080 -6.000Z" fill="#8995A5" />
      <ellipse cx="6.064323931298132" cy="0" rx="0.5229344564859488" ry="6" fill="#E3E8EF" />
    </g>
    <g transform="translate(-2.4399732966912404e-16 3.984778792366982) rotate(-90)" aria-label="gold collectible stud">
      <path d="M-5.890 -8.000H-0.909A0.697 8.000 0 0 1 -0.909 8.000H-5.890A0.697 8.000 0 0 1 -5.890 -8.000Z" fill="#895009" />
      <ellipse cx="-0.9090389553440881" cy="0" rx="0.6972459419812651" ry="8" fill="#BE7E0D" />
      <path d="M-0.909 -10.000H2.080A0.872 10.000 0 0 1 2.080 10.000H-0.909A0.872 10.000 0 0 1 -0.909 -10.000Z" fill="#BE7E0D" />
      <ellipse cx="2.079545138931149" cy="0" rx="0.8715574274765814" ry="10" fill="#E8B42B" />
      <path d="M2.080 -6.000H6.064A0.523 6.000 0 0 1 6.064 6.000H2.080A0.523 6.000 0 0 1 2.080 -6.000Z" fill="#BE7E0D" />
      <ellipse cx="6.064323931298132" cy="0" rx="0.5229344564859488" ry="6" fill="#FFD66B" />
    </g>
    <g transform="translate(2.4399732966912404e-16 -3.984778792366982) rotate(-90)" aria-label="blue collectible stud">
      <path d="M-5.890 -8.000H-0.909A0.697 8.000 0 0 1 -0.909 8.000H-5.890A0.697 8.000 0 0 1 -5.890 -8.000Z" fill="#153481" />
      <ellipse cx="-0.9090389553440881" cy="0" rx="0.6972459419812651" ry="8" fill="#2050B6" />
      <path d="M-0.909 -10.000H2.080A0.872 10.000 0 0 1 2.080 10.000H-0.909A0.872 10.000 0 0 1 -0.909 -10.000Z" fill="#2050B6" />
      <ellipse cx="2.079545138931149" cy="0" rx="0.8715574274765814" ry="10" fill="#2868E5" />
      <path d="M2.080 -6.000H6.064A0.523 6.000 0 0 1 6.064 6.000H2.080A0.523 6.000 0 0 1 2.080 -6.000Z" fill="#2050B6" />
      <ellipse cx="6.064323931298132" cy="0" rx="0.5229344564859488" ry="6" fill="#659BFF" />
    </g>
    <g transform="translate(7.319919890073721e-16 -11.954336377100947) rotate(-90)" aria-label="purple collectible stud">
      <path d="M-5.890 -8.000H-0.909A0.697 8.000 0 0 1 -0.909 8.000H-5.890A0.697 8.000 0 0 1 -5.890 -8.000Z" fill="#45118B" />
      <ellipse cx="-0.9090389553440881" cy="0" rx="0.6972459419812651" ry="8" fill="#6320B4" />
      <path d="M-0.909 -10.000H2.080A0.872 10.000 0 0 1 2.080 10.000H-0.909A0.872 10.000 0 0 1 -0.909 -10.000Z" fill="#6320B4" />
      <ellipse cx="2.079545138931149" cy="0" rx="0.8715574274765814" ry="10" fill="#812AD4" />
      <path d="M2.080 -6.000H6.064A0.523 6.000 0 0 1 6.064 6.000H2.080A0.523 6.000 0 0 1 2.080 -6.000Z" fill="#6320B4" />
      <ellipse cx="6.064323931298132" cy="0" rx="0.5229344564859488" ry="6" fill="#A44FEF" />
    </g>
  </g>
</svg>
